<svg aria-hidden="true" focusable="false" data-prefix="fas" data-icon="user-circle" role="img" xmlns="http://www.w3.org/2000/svg" width="496" height="512" style=""><rect id="backgroundrect" width="100%" height="100%" x="0" y="0" fill="none" stroke="none"/><g class="currentLayer" style=""><title>Layer 1</title><path fill="#ffffff" d="M249.0638256072998,8 C112.0638256072998,8 1.0638294219970703,118.99999809265137 1.0638294219970703,255.99999809265137 s111,248 248,248 s248,-111 248,-248 S386.0638256072998,8 249.0638256072998,8 zm0,96 c48.599998474121094,0 88,39.400001525878906 88,88 s-39.400001525878906,88 -88,88 s-88,-39.400001525878906 -88,-88 s39.400001525878906,-88 88,-88 zm0,344 c-58.70000076293945,0 -111.30000305175781,-26.600000381469727 -146.5,-68.19999694824219 c18.799999237060547,-35.400001525878906 55.599998474121094,-59.79999923706055 98.5,-59.79999923706055 c2.4000000953674316,0 4.800000190734863,0.4000000059604645 7.099999904632568,1.100000023841858 c13,4.199999809265137 26.600000381469727,6.900000095367432 40.900001525878906,6.900000095367432 c14.300000190734863,0 28,-2.700000047683716 40.900001525878906,-6.900000095367432 c2.299999952316284,-0.699999988079071 4.699999809265137,-1.100000023841858 7.099999904632568,-1.100000023841858 c42.900001525878906,0 79.69999694824219,24.399999618530273 98.5,59.79999923706055 C360.36381340026855,421.39999198913574 307.76383781433105,447.99999809265137 249.0638256072998,447.99999809265137 z" id="svg_1" class="selected" opacity="1" fill-opacity="1"/></g></svg>